<svg width="193" height="30" viewBox="0 0 193 30" fill="none" xmlns="http://www.w3.org/2000/svg">
<path fill-rule="evenodd" clip-rule="evenodd" d="M67.4131 8.62228C62.1375 8.6207 56.862 8.6207 51.5864 8.62228V11.617C52.4275 11.6177 53.2689 11.6175 54.1103 11.6173H54.1103H54.1104H54.1104H54.1104H54.1112C55.2329 11.6171 56.3547 11.6168 57.476 11.6186C57.4776 16.0405 57.4776 20.4609 57.476 24.8828C58.8241 24.886 60.1722 24.8844 61.5219 24.8828H61.5235C61.5235 23.41 61.5233 21.9369 61.5232 20.4637V20.4634V20.463V20.4627V20.4624C61.5228 17.5147 61.5225 14.5667 61.5235 11.6186C62.832 11.6175 64.1404 11.6179 65.4488 11.6182C66.1031 11.6184 66.7573 11.6186 67.4115 11.6186C67.4131 10.6188 67.4131 9.62052 67.4131 8.62228ZM119.545 13.8491L119.545 13.8498L119.544 13.8502L119.544 13.8504L119.544 13.8505C119.032 14.4275 118.521 15.0045 118.006 15.5783C118.006 15.807 118.006 16.0372 118.007 16.2691C118.267 16.2691 118.528 16.2694 118.788 16.2698C119.049 16.2702 119.311 16.2706 119.572 16.2706C119.575 17.0053 119.574 17.74 119.573 18.4746C119.572 19.4542 119.571 20.4337 119.58 21.4133C119.602 22.7458 120.306 24.1147 121.573 24.6682C123.307 25.4299 125.327 25.1287 127.031 24.4285C127.03 24.0703 127.03 23.7121 127.03 23.3539C127.031 22.8763 127.031 22.3987 127.029 21.9211C126.158 22.3342 125.179 22.6812 124.203 22.4888C123.494 22.3405 123.039 21.6325 123.039 20.9386C123.017 19.9923 123.021 19.0455 123.024 18.0987V18.0979C123.027 17.4892 123.029 16.8806 123.024 16.2722C123.752 16.2696 124.481 16.2699 125.209 16.2701C125.816 16.2703 126.423 16.2705 127.031 16.2691V13.8846H123.026C123.024 13.3074 123.024 12.7298 123.024 12.1523C123.025 11.5747 123.025 10.9971 123.023 10.4199C122.918 10.4294 122.709 10.4452 122.604 10.453C121.568 11.5688 120.557 12.7089 119.546 13.8488L119.545 13.8491ZM72.8441 13.973C70.7529 13.2964 68.2143 13.6717 66.6547 15.2945C65.5678 16.3495 65.0252 17.8745 65.0474 19.3695C65.0141 20.6768 65.3965 22.0236 66.2612 23.0281C67.2465 24.2109 68.7443 24.8827 70.2627 25.0467C72.3475 25.2659 74.5958 24.9411 76.3062 23.6621C76.2958 23.1826 76.2969 22.7031 76.2981 22.224V22.2239V22.2237V22.2236V22.2235C76.2987 21.9701 76.2993 21.7168 76.2982 21.4638C74.7132 22.6733 72.5712 23.4997 70.599 22.7679C69.4043 22.3611 68.6808 21.1547 68.6205 19.9388C70.0001 19.9347 71.3797 19.9353 72.7593 19.9359C74.0135 19.9365 75.2677 19.9371 76.5219 19.9341C76.5235 19.0525 76.4585 18.1568 76.1665 17.3178C75.6588 15.7723 74.3927 14.4965 72.8441 13.973ZM68.7046 18.1205C68.8061 17.3383 69.0648 16.4772 69.7851 16.0451C70.5213 15.6304 71.4812 15.6209 72.238 15.9852C73.0298 16.3874 73.3296 17.3004 73.4407 18.1205C71.862 18.1236 70.2833 18.1236 68.7046 18.1205ZM88.4374 14.5503C87.3981 13.6767 85.913 13.4748 84.6215 13.8107C83.6632 14.0646 82.854 14.6891 82.2083 15.4209C82.209 15.1645 82.2086 14.9086 82.2083 14.6529V14.6527V14.6525C82.2079 14.397 82.2075 14.1417 82.2083 13.8864C81.0579 13.8833 79.9076 13.8848 78.7573 13.8864V24.8845H82.2083C82.2126 23.9631 82.2104 23.0417 82.2082 22.1205C82.2047 20.6877 82.2013 19.2554 82.2225 17.8242C82.5748 17.2076 83.0682 16.6541 83.6695 16.2709C84.3343 15.8514 85.3403 15.8671 85.875 16.4885C86.3192 17.0247 86.3398 17.758 86.3525 18.4219C86.3547 19.8568 86.354 21.2924 86.3532 22.7283V22.7284V22.7286C86.3529 23.4467 86.3525 24.1648 86.3525 24.8829C87.2151 24.8853 88.0777 24.885 88.9402 24.8847L89.8035 24.8845C89.8035 24.0781 89.8036 23.2717 89.8038 22.4654C89.8042 20.8526 89.8045 19.2398 89.8035 17.6271C89.7939 16.479 89.3656 15.2789 88.4374 14.5503ZM99.3076 13.8471C97.0276 13.3851 94.5652 13.7493 92.5819 14.9841C92.5787 15.9351 92.5803 16.8876 92.5819 17.8401V17.8401C93.8338 16.5564 95.6965 15.6591 97.5147 16.0991C98.2795 16.2804 98.6032 17.0942 98.5651 17.8086C97.2418 18.206 95.9202 18.616 94.6413 19.138C94.5763 19.1666 94.5108 19.195 94.4449 19.2236C93.7992 19.5038 93.1275 19.7953 92.6739 20.3491C92.0742 21.0714 91.887 22.0744 92.0615 22.9812C92.3867 24.2002 93.618 25.0707 94.8682 25.1022C96.2375 25.1764 97.5703 24.6607 98.6904 23.9053C98.8539 24.4225 99.2426 24.8783 99.7916 25.0045C101.21 25.3419 102.663 24.8121 103.887 24.115V24.1143C103.885 23.4664 103.883 22.8201 103.89 22.1737C103.79 22.2295 103.689 22.2933 103.587 22.358C103.201 22.6027 102.794 22.8606 102.33 22.7446C102.023 22.5873 102.013 22.2056 102.005 21.9075L102.005 21.8962C102 20.9415 102.001 19.9864 102.002 19.0313C102.003 18.2966 102.004 17.562 102.002 16.8277C101.997 16.118 101.762 15.3973 101.275 14.869C100.763 14.3139 100.036 14.008 99.3076 13.8471ZM96.1804 22.9402C95.3553 22.5648 95.3426 21.3505 95.9995 20.808C96.6354 20.28 97.4241 19.9905 98.1968 19.7068C98.3149 19.6635 98.4325 19.6203 98.5492 19.5764C98.5514 19.9849 98.5512 20.3934 98.5511 20.802V20.8021V20.804V20.8055C98.5508 21.2728 98.5506 21.7404 98.554 22.2084C97.9193 22.7509 97.0324 23.2477 96.1804 22.9402ZM112.155 13.6626C110.798 13.6626 109.564 14.4179 108.705 15.4209C108.706 15.1646 108.706 14.9087 108.705 14.6529C108.705 14.3973 108.705 14.1419 108.705 13.8865C107.555 13.8833 106.405 13.8849 105.254 13.8865V24.8846H108.705C108.71 23.9632 108.707 23.0418 108.705 22.1205C108.702 20.6875 108.698 19.2548 108.72 17.8227C109.073 17.2077 109.565 16.6526 110.167 16.2709C110.83 15.8514 111.834 15.8672 112.37 16.4854C112.818 17.0247 112.837 17.7628 112.85 18.4299C112.853 20.5809 112.851 22.7319 112.85 24.883C113.712 24.8854 114.575 24.8851 115.438 24.8848C115.725 24.8847 116.013 24.8846 116.301 24.8846C116.302 23.881 116.302 22.8778 116.302 21.8746C116.301 20.6707 116.301 19.467 116.304 18.2627C116.334 17.3496 116.25 16.4002 115.799 15.5865C115.106 14.2965 113.598 13.5774 112.155 13.6626Z" fill="#41A541"/>
<path fill-rule="evenodd" clip-rule="evenodd" d="M132.619 9.90446C134.361 8.81317 136.456 8.39526 138.494 8.41891C140.511 8.4063 142.566 8.81001 144.322 9.82718C144.328 11.0446 144.322 12.2621 144.325 13.4795C142.547 12.4971 140.552 11.7622 138.49 11.8331C136.841 11.8442 135.147 12.4308 134.026 13.6672C132.365 15.4114 132.483 18.4755 134.25 20.1061C135.473 21.3252 137.27 21.803 138.966 21.71C140.952 21.6831 142.755 20.7574 144.503 19.9216C144.508 21.1107 144.495 22.3013 144.511 23.492C141.833 24.9539 138.647 25.4443 135.646 24.8924C133.506 24.5155 131.502 23.3532 130.204 21.609C128.729 19.7087 128.329 17.1256 128.886 14.82C129.394 12.7636 130.837 11.021 132.619 9.90446ZM147.381 8.62235C148.53 8.62077 149.68 8.6192 150.829 8.62235C150.832 14.0425 150.829 19.4627 150.831 24.8829C149.68 24.8861 148.53 24.8845 147.38 24.8845C147.38 19.4627 147.378 14.0425 147.381 8.62235ZM189.479 8.63497C190.63 8.605 191.783 8.62708 192.935 8.62235C192.937 14.0425 192.937 19.4627 192.935 24.8829C191.785 24.8845 190.634 24.8861 189.484 24.8829C189.482 24.599 189.482 24.3152 189.487 24.0345C187.59 25.6351 184.456 25.4317 182.822 23.5519C181.721 22.4038 181.226 20.7843 181.289 19.2167C181.265 17.37 182.13 15.4887 183.709 14.4667C185.418 13.355 187.696 13.4622 189.484 14.339C189.482 12.4387 189.492 10.5368 189.479 8.63497ZM186.411 16.2125C185.524 16.5973 185.032 17.534 184.892 18.4471C184.732 19.5558 184.78 20.7827 185.435 21.7383C185.857 22.3676 186.59 22.7918 187.36 22.7792C188.167 22.8217 188.9 22.3928 189.486 21.8787C189.486 20.1282 189.481 18.3762 189.487 16.6257C188.607 16.0138 187.417 15.7662 186.411 16.2125ZM158.367 13.7287C160.163 13.4937 162.1 13.8139 163.56 14.9335C164.61 15.6874 165.331 16.8543 165.547 18.1238C165.785 19.6078 165.664 21.2321 164.823 22.5221C163.246 24.8545 160.043 25.5705 157.421 24.8514C155.536 24.353 153.899 22.8533 153.444 20.9404C153.134 19.6046 153.19 18.1459 153.771 16.8875C154.596 15.1165 156.45 13.9668 158.367 13.7287ZM158.864 15.8387C157.71 16.1179 157.145 17.3369 157.029 18.4156C156.922 19.5936 156.912 20.8647 157.482 21.9402C158.178 23.3232 160.442 23.4352 161.286 22.1436C161.854 21.2794 161.926 20.2023 161.921 19.1994C161.907 18.2673 161.796 17.2596 161.194 16.5042C160.65 15.823 159.679 15.6511 158.864 15.8387ZM167.925 13.888C169.075 13.8817 170.226 13.8864 171.376 13.8848C171.39 16.233 171.354 18.5812 171.395 20.9278C171.395 21.6737 171.757 22.5442 172.564 22.7177C173.84 23.0804 175.122 22.1011 175.506 20.9372C175.545 18.5875 175.511 16.2362 175.523 13.8864C176.672 13.8833 177.822 13.8848 178.973 13.8864C178.974 17.5514 178.974 21.2179 178.973 24.8829C177.822 24.8845 176.672 24.8861 175.522 24.8829C175.522 24.3704 175.52 23.8594 175.526 23.3485C174.86 24.0818 174.046 24.7299 173.066 24.9728C171.752 25.2882 170.24 25.08 169.207 24.1654C168.322 23.4147 167.917 22.2304 167.925 21.0965C167.926 18.6931 167.928 16.2913 167.925 13.888Z" fill="#141414"/>
<path fill-rule="evenodd" clip-rule="evenodd" d="M28.4655 1.21582C30.6466 2.21913 32.3468 3.47232 33.6323 5.16265C34.9177 6.85297 35.8224 8.42709 36.3689 10.7724C36.7405 10.7863 37.3005 10.8559 37.5338 10.8948C37.7671 10.9336 38.1306 11.0076 38.4004 11.0809C38.6702 11.1542 38.9283 11.2288 39.2389 11.346C39.4509 11.426 39.6057 11.472 40.0103 11.6654C40.4149 11.8589 40.4246 11.8662 40.7518 12.0503C41.7891 12.6339 42.122 12.9705 42.5532 13.3917C42.9844 13.8129 43.0386 13.8768 43.2899 14.17C43.5411 14.4633 43.5494 14.4827 43.67 14.6455C43.7842 14.7998 43.8867 14.9546 43.9909 15.1106C44.2899 15.5583 44.558 16.0443 44.77 16.5388C44.9117 16.8694 45.126 17.4532 45.281 18.0493C45.3257 18.2213 45.3619 18.3956 45.3943 18.564C45.4175 18.685 45.4415 18.8026 45.452 18.9155C45.4841 19.2612 45.5432 19.6074 45.5499 19.9498C45.5639 20.6631 45.5291 21.3726 45.401 22.0679C45.1362 23.5048 44.543 24.9139 43.5521 26.2081C42.8493 27.1259 42.0306 27.8122 41.1402 28.4038C40.4487 28.8633 39.7049 29.2089 38.8598 29.4906C38.1765 29.6726 37.4794 29.8564 36.7577 29.9012C36.1502 29.9679 35.5407 29.9961 34.8507 29.9961C33.2473 29.9961 31.4151 29.9764 29.7475 29.9961C29.369 30.0006 28.9953 29.9963 28.6324 29.9961C27.9887 29.9957 27.3762 29.9962 26.8116 29.9961C26.4884 29.9947 26.4178 30.0029 25.8227 29.9961C25.4988 29.9924 24.7476 30.0453 23.9702 29.8505C23.8741 29.8264 23.7715 29.7923 23.6543 29.7534C23.6409 29.7489 23.6776 29.7613 23.5954 29.7318C23.5133 29.7022 23.3902 29.6507 23.3364 29.6255C23.2663 29.5928 23.1592 29.5394 23.1592 29.5394C23.1592 29.5394 23.0783 29.4965 23.0449 29.4779C22.9954 29.4504 23.1551 29.5471 22.9274 29.4091C22.6997 29.271 22.523 29.1513 22.3724 29.0175C22.3342 28.9836 22.167 28.8334 22.1352 28.8001C22.0939 28.7567 22.0266 28.6899 21.9882 28.646C21.9089 28.5555 21.8314 28.4645 21.7639 28.3692C21.6964 28.2738 21.705 28.2892 21.677 28.2475C21.617 28.158 21.5741 28.0982 21.5012 27.9701C21.4282 27.8421 21.4215 27.8218 21.4011 27.7826C21.3807 27.7434 21.379 27.7436 21.3258 27.6263C21.2726 27.5091 21.2917 27.5449 21.2605 27.4676C21.2294 27.3903 21.197 27.3052 21.1566 27.17C21.1274 27.0721 21.1016 26.9666 21.0844 26.8867C21.056 26.7551 21.0408 26.6845 21.0237 26.5484C21.0067 26.4123 21.004 26.3759 20.9956 26.1995C20.9834 25.9447 20.9773 25.6077 20.9773 25.374C20.9773 24.5842 20.9814 23.8546 20.9773 23.6404C20.9511 21.3684 20.9773 19.1132 20.9773 16.8335C19.6731 16.8322 18.4297 16.8341 17.1254 16.8328C19.5169 14.4477 21.9089 12.0639 24.3016 9.68073C24.3023 10.3307 24.3021 10.9806 24.302 11.6305C24.3018 12.2804 24.3016 12.9303 24.3023 13.5803C25.3901 13.5816 26.4773 13.5803 27.5652 13.5809C27.5652 14.6649 27.5658 15.7488 27.5645 16.8328C26.4767 16.8335 25.3895 16.8328 24.3023 16.8335C24.3016 18.8286 24.2628 20.8088 24.2628 22.8039C24.2625 23.105 24.257 23.6658 24.2628 24.2744C24.2685 24.862 24.2827 25.4914 24.3841 25.9722C24.3956 26.0266 24.4114 26.0781 24.4283 26.1322C24.4452 26.1862 24.4956 26.3263 24.5664 26.4557C24.6204 26.5545 24.6886 26.6424 24.7131 26.6739C24.7522 26.7241 24.813 26.7986 24.8777 26.8624C24.9638 26.9473 25.0541 27.0168 25.0665 27.026C25.1308 27.0735 25.2011 27.1197 25.2943 27.17C25.3875 27.2203 25.4974 27.2679 25.6502 27.3139C26.009 27.4219 26.6216 27.391 26.8116 27.3904C28.7807 27.3904 32.0517 27.3748 34.0202 27.3748C34.8687 27.3702 36.0637 27.3515 36.5643 27.2928C37.0649 27.2341 37.408 27.1534 37.7299 27.0717C38.0519 26.9899 38.1727 26.937 38.463 26.8304C38.84 26.692 39.1977 26.5192 39.5432 26.3069C39.9304 26.069 40.3017 25.7957 40.6372 25.488C41.0663 25.0947 41.4479 24.6544 41.7377 24.2261C42.3053 23.3875 42.7117 22.3558 42.8539 21.2657C42.8916 20.9759 42.908 20.6826 42.9094 20.3907C42.9111 20.0058 42.8823 19.6215 42.8204 19.2482C42.6852 18.4325 42.409 17.6674 42.067 17.0511C41.3746 15.803 40.3762 14.8312 39.135 14.2053C38.8692 14.0713 38.5932 13.9458 38.3056 13.8448C38.1853 13.8025 37.785 13.6727 37.3606 13.5809C36.9519 13.4926 36.5194 13.4415 36.3689 13.4384C36.11 13.433 35.9628 13.4384 35.8402 13.4384C35.7177 13.4384 35.6365 13.4447 35.4129 13.4575C35.1893 13.4702 35.1796 13.4817 34.9535 13.5048C34.7274 13.5279 34.2172 13.6479 34.0202 13.7084C34.0131 13.085 33.9267 11.9628 33.7643 11.3773C33.6062 10.8069 33.4452 10.23 33.2181 9.68073C33.0987 9.39189 32.985 9.10595 32.8433 8.83041C32.5813 8.32062 32.2689 7.83869 31.967 7.38531C31.362 6.47649 30.4325 5.55814 29.4741 4.85096C28.7001 4.27982 27.8993 3.85961 27.2958 3.59074C25.9451 2.98896 24.2122 2.6416 22.5897 2.67874C21.6944 2.69923 20.8298 2.80713 20.0184 3.02105C19.207 3.23498 18.307 3.56429 17.4568 4.02168C17.1267 4.19926 16.7448 4.43269 16.3955 4.68067C15.7321 5.15162 15.0949 5.69719 14.4929 6.34407C14.2995 6.55192 14.1285 6.76889 13.9613 6.98353C13.6128 7.43075 13.3092 7.88428 13.0528 8.33923C12.8475 8.70332 12.6564 9.06263 12.5069 9.41794C12.3412 9.81153 12.1332 10.344 11.9815 10.9336C11.7429 11.8606 11.5957 12.9173 11.6058 13.7084C11.3712 13.643 11.0504 13.5719 10.8456 13.5364C10.6407 13.5009 10.426 13.4751 10.205 13.4575C10.0917 13.4484 9.8082 13.4312 9.48443 13.4384C9.17719 13.4452 8.83375 13.475 8.56175 13.5209C8.39175 13.547 8.22043 13.5814 8.04799 13.6214C7.85794 13.6656 7.66711 13.7204 7.47754 13.7819C7.1057 13.9025 6.73874 14.061 6.38518 14.2448C6.05666 14.4155 5.71335 14.6374 5.39226 14.8848C5.22829 15.0111 5.14792 15.0773 5.05414 15.1599C4.96428 15.239 4.86188 15.333 4.67233 15.5188C4.55877 15.6469 4.31236 15.8973 4.06552 16.2288C3.81868 16.5603 3.50838 17.0511 3.319 17.4823C3.12962 17.9135 3.0112 18.2412 2.91266 18.6125C2.73281 19.29 2.67433 19.9201 2.69663 20.3484C2.71308 20.6643 2.71529 21.0913 2.7891 21.5501C2.80181 21.6291 2.81832 21.7093 2.83516 21.7911C2.87172 21.9686 2.91647 22.1526 2.97413 22.3401C3.03229 22.5294 3.09891 22.7222 3.17333 22.915C3.18858 22.9545 3.19604 22.9736 3.22189 23.0334C3.24774 23.0932 3.27388 23.1553 3.30168 23.2163C3.30854 23.2314 3.31588 23.2464 3.32264 23.2615C3.47457 23.602 3.67625 23.9456 3.89971 24.2744C3.95787 24.36 4.00358 24.4209 4.03856 24.469C4.05266 24.4883 4.06509 24.5053 4.07673 24.5208C4.12781 24.589 4.15899 24.6273 4.20672 24.6873C4.22481 24.71 4.24649 24.737 4.26963 24.7649C4.29277 24.7929 4.32388 24.8303 4.33116 24.8387C4.34988 24.8602 4.37774 24.8923 4.39593 24.9139C4.41412 24.9356 4.44131 24.9641 4.46847 24.9953C4.49563 25.0265 4.55405 25.0884 4.59754 25.1347C5.24947 25.8293 6.16183 26.4664 7.17339 26.8504C8.07285 27.1918 9.05283 27.317 9.96576 27.3527C12.0842 27.4355 14.8432 27.3742 17.6497 27.3748C17.6504 28.2422 17.6504 29.1097 17.6497 29.9771C14.5376 29.9765 11.9991 29.9044 8.88768 29.9012C8.72828 29.8937 8.56747 29.877 8.40519 29.8564C8.14575 29.8234 7.88293 29.7777 7.61904 29.724C5.98997 29.3921 4.32261 28.5398 3.05371 27.3527C2.67016 26.9938 2.31133 26.6011 1.98816 26.179C1.40824 25.4216 0.937513 24.5744 0.604871 23.6929C0.391017 23.1306 0.23775 22.5451 0.134501 21.9503C0.0451421 21.4355 0.00431837 20.9124 0.000308786 20.3907C-0.00438754 19.7796 0.0441937 19.1701 0.166091 18.5731C0.228612 18.2616 0.299119 17.943 0.392608 17.6317C0.522565 17.199 0.689362 16.776 0.873448 16.3669C1.39919 15.1986 2.17002 14.1802 3.07527 13.3341C3.5536 12.887 3.88374 12.6446 4.27162 12.3832C5.02109 11.8782 5.70796 11.5698 6.50276 11.2859C7.25227 11.0181 8.10119 10.8226 9.25697 10.7698C9.30978 10.4473 9.41302 10.1413 9.50922 9.8232C9.69833 9.19791 9.94017 8.55423 10.2779 7.84489C10.7873 6.77472 11.4213 5.80394 12.1798 4.92103C13.0508 3.90724 14.2763 2.8554 15.2646 2.22502C15.8438 1.85559 16.4244 1.53912 16.9941 1.2704C17.3966 1.08057 17.8116 0.915421 18.2403 0.772541C19.3598 0.370246 20.8525 0.0556286 22.2369 0.00844366C22.936 -0.0153863 23.6182 0.0120432 24.3023 0.0803718C25.6594 0.215927 27.0153 0.548758 28.4655 1.21582Z" fill="#41A541"/>
</svg>
