<svg width="320" height="1353" viewBox="0 0 320 1353" fill="none" xmlns="http://www.w3.org/2000/svg">
<path d="M-548.479 311.748C-615.307 308.298 -658.366 300.374 -729.757 329.129C-801.148 357.885 -854.645 422.247 -855.546 522.393C-856.674 647.576 -752.519 581.582 -687.967 637.213C-623.415 692.844 -878.979 914.798 -869.933 1027.33C-860.888 1139.87 -655.82 1100.71 -512.886 1048.12C-369.951 995.535 -237.29 1042.1 -170.818 1052.02C-104.345 1061.94 3.59039 1064.17 68.6703 993.206C133.75 922.247 92.2153 801.94 87.2559 767.473C82.2964 733.007 76.4118 650.717 140.587 568.504C191.927 502.733 203.031 438.06 204.721 413.149C206.412 388.238 192.457 328.291 131.287 268.192C58.8286 197.003 -47.3596 173.051 -139.116 190.532C-230.873 208.013 -309.723 283.177 -387.852 309.815C-465.98 336.454 -464.944 316.06 -548.479 311.748Z" fill="#BFDACE"/>
</svg>
