<svg width="751" height="1030" viewBox="0 0 751 1030" fill="none" xmlns="http://www.w3.org/2000/svg">
<path d="M-29.2995 70.291C-98.853 54.3986 -143.285 37.4549 -219.764 58.6213C-296.243 79.7877 -356.425 145.989 -364.086 263.581C-373.663 410.571 -260.472 351.423 -196.797 428.267C-133.122 505.11 -414.885 720.82 -412.99 854.74C-411.096 988.661 -194.328 978.94 -41.5414 942.423C111.245 905.906 246.651 984.151 315.399 1007.59C384.147 1031.02 496.708 1052.76 569.429 980.855C642.149 908.948 606.849 760.134 603.983 718.731C601.117 677.327 600.493 579.528 673.025 494.228C731.049 425.989 746.984 351.913 750.42 322.922C753.857 293.932 743.307 220.974 683.463 139.476C612.576 42.9386 503.297 -4.03132 406.308 0.27087C309.319 4.57303 221.937 78.9851 138.564 96.4686C55.1916 113.952 57.6423 90.1564 -29.2995 70.291Z" fill="#BFDACE"/>
</svg>
