<svg width="131" height="128" viewBox="0 0 131 128" fill="none" xmlns="http://www.w3.org/2000/svg">
<path fill-rule="evenodd" clip-rule="evenodd" d="M52.5658 103.804C77.6171 111.463 104.134 97.3636 111.793 72.3123C119.452 47.261 105.353 20.7441 80.3013 13.0851C55.25 5.42617 28.7331 19.5255 21.0741 44.5768C13.4152 69.6281 27.5145 96.145 52.5658 103.804Z" fill="#527C5A"/>
<g filter="url(#filter0_d)">
<path fill-rule="evenodd" clip-rule="evenodd" d="M7.33112 73.6012C4.84524 75.2087 4.9062 78.8658 7.44428 80.3896L56.8232 110.034C63.1132 113.811 71.0152 113.628 77.1242 109.566L122.448 79.4245C126.258 76.8907 125.943 71.1955 121.877 69.0968L69.7747 42.2046C64.997 39.7385 59.2647 40.0183 54.7498 42.9379L7.33112 73.6012Z" fill="white"/>
</g>
<path d="M79.9536 32.5L52.9536 36.9999L58.4536 39.5L88.4536 36L87.1724 34.7188C85.454 33.0004 83.0475 32.1562 80.6321 32.4246L79.9536 32.5Z" fill="#CFDFC7"/>
<path d="M58.4536 37.5L55.7058 37.0004C51.4089 36.2191 47.4536 39.5202 47.4536 43.8875V62.9286L50.4536 67L58.4536 37.5Z" fill="#CFDFC7"/>
<path d="M50.4536 45.8571C50.4536 41.9113 53.3306 38.5547 57.2301 37.9513L82.8769 33.9821C87.8439 33.2134 92.281 37.1614 92.0949 42.1841L91.6913 53.0823C91.5524 56.8315 88.8268 59.9805 85.1363 60.6556L50.4536 67V45.8571Z" fill="#95B19B"/>
<path d="M50.4536 74V67L63.4536 64.5L50.4536 74Z" fill="#95B19B"/>
<path d="M47.9536 72.5L47.4536 63L50.4536 67V74L47.9536 72.5Z" fill="#CFDFC7"/>
<path d="M57.4536 47.2269C57.4536 46.5159 57.9609 45.9061 58.66 45.7766L82.7101 41.3229C83.6169 41.155 84.4536 41.851 84.4536 42.7731C84.4536 43.4841 83.9464 44.0939 83.2473 44.2234L59.1971 48.6771C58.2904 48.845 57.4536 48.149 57.4536 47.2269Z" fill="#CFDFC7"/>
<path d="M57.4536 52.7269C57.4536 52.0159 57.9609 51.4061 58.66 51.2766L82.7101 46.8229C83.6169 46.655 84.4536 47.351 84.4536 48.2731C84.4536 48.9841 83.9464 49.5939 83.2473 49.7234L59.1971 54.1771C58.2904 54.345 57.4536 53.649 57.4536 52.7269Z" fill="#CFDFC7"/>
<path d="M57.4536 58.7236C57.4536 58.0141 57.9589 57.4053 58.6562 57.2745L71.7076 54.8274C72.6149 54.6573 73.4536 55.3533 73.4536 56.2764C73.4536 56.9859 72.9483 57.5947 72.251 57.7255L59.1996 60.1726C58.2923 60.3427 57.4536 59.6467 57.4536 58.7236Z" fill="#CFDFC7"/>
<circle cx="47.818" cy="34.3644" r="12.3644" fill="#8D9DDC"/>
<path d="M49.8787 47.4158C43.2396 47.4158 37.8578 42.034 37.8578 35.3949C37.8578 28.7557 43.2396 23.374 49.8787 23.374C56.5179 23.374 61.8996 28.7557 61.8996 35.3949C61.8996 42.034 56.5179 47.4158 49.8787 47.4158ZM51.0808 35.3949V29.3844H48.6767V37.799H55.8892V35.3949H51.0808Z" fill="#B3BFF0"/>
<defs>
<filter id="filter0_d" x="0.503174" y="37.5338" width="129.622" height="82.2109" filterUnits="userSpaceOnUse" color-interpolation-filters="sRGB">
<feFlood flood-opacity="0" result="BackgroundImageFix"/>
<feColorMatrix in="SourceAlpha" type="matrix" values="0 0 0 0 0 0 0 0 0 0 0 0 0 0 0 0 0 0 127 0"/>
<feOffset dy="2"/>
<feGaussianBlur stdDeviation="2.5"/>
<feColorMatrix type="matrix" values="0 0 0 0 0.00135416 0 0 0 0 0.1625 0 0 0 0 0.134936 0 0 0 0.15 0"/>
<feBlend mode="normal" in2="BackgroundImageFix" result="effect1_dropShadow"/>
<feBlend mode="normal" in="SourceGraphic" in2="effect1_dropShadow" result="shape"/>
</filter>
</defs>
</svg>
