<svg width="131" height="128" viewBox="0 0 131 128" fill="none" xmlns="http://www.w3.org/2000/svg">
<g clip-path="url(#clip0)">
<path fill-rule="evenodd" clip-rule="evenodd" d="M52.5658 103.804C77.6171 111.463 104.134 97.3636 111.793 72.3123C119.452 47.261 105.353 20.7441 80.3013 13.0851C55.25 5.42619 28.7331 19.5255 21.0741 44.5768C13.4152 69.6281 27.5145 96.145 52.5658 103.804Z" fill="#527C5A"/>
<g filter="url(#filter0_d)">
<path fill-rule="evenodd" clip-rule="evenodd" d="M7.33114 73.6011C4.84526 75.2086 4.90622 78.8657 7.4443 80.3895L56.8232 110.034C63.1132 113.811 71.0152 113.628 77.1241 109.566L122.448 79.4245C126.258 76.8906 125.943 71.1954 121.877 69.0967L69.7747 42.2045C64.9969 39.7385 59.2647 40.0182 54.7498 42.9378L7.33114 73.6011Z" fill="white"/>
</g>
<path d="M86.6618 43.2358C86.9632 42.5552 86.8617 41.7636 86.3984 41.1811L72.0182 23.1013C71.0767 21.9176 69.2126 22.167 68.6154 23.5566L49.3412 68.4046C49.0707 69.0341 49.1412 69.7582 49.5282 70.3237L62.7642 89.6666C63.6489 90.9595 65.6091 90.7793 66.2434 89.3469L86.6618 43.2358Z" fill="#95B19B"/>
<path d="M84.4911 42.632C84.794 41.9479 84.6898 41.1519 84.221 40.5689L69.7654 22.5913C68.8204 21.4161 66.9643 21.6696 66.3691 23.0551L47.3442 67.3405C47.0722 67.9738 47.1453 68.7025 47.5378 69.269L60.8566 88.4928C61.7458 89.7763 63.6971 89.5913 64.3293 88.1636L84.4911 42.632Z" fill="#CFDFC7"/>
<path d="M83.1736 42.5543L67.7028 23.9924L50.6459 62.5077L65.502 81.7655L83.1736 42.5543Z" fill="#E3F0DC"/>
<path d="M55.0477 75.7136C55.9593 75.7136 56.6983 74.7282 56.6983 73.5127C56.6983 72.2971 55.9593 71.3118 55.0477 71.3118C54.136 71.3118 53.397 72.2971 53.397 73.5127C53.397 74.7282 54.136 75.7136 55.0477 75.7136Z" fill="#95B19B"/>
<path fill-rule="evenodd" clip-rule="evenodd" d="M52.5658 103.804C77.6171 111.463 104.134 97.3636 111.793 72.3123C119.452 47.261 105.353 20.7441 80.3013 13.0851C55.25 5.42617 28.7331 19.5255 21.0741 44.5768C13.4152 69.6281 27.5145 96.145 52.5658 103.804Z" fill="#527C5A"/>
<g filter="url(#filter1_d)">
<path fill-rule="evenodd" clip-rule="evenodd" d="M7.33112 73.6012C4.84524 75.2087 4.9062 78.8658 7.44428 80.3896L56.8232 110.034C63.1132 113.811 71.0152 113.628 77.1242 109.566L122.448 79.4245C126.258 76.8907 125.943 71.1955 121.877 69.0968L69.7747 42.2046C64.997 39.7385 59.2647 40.0183 54.7498 42.9379L7.33112 73.6012Z" fill="white"/>
</g>
<path d="M86.6619 43.2358C86.9633 42.5552 86.8617 41.7636 86.3984 41.1811L72.0182 23.1013C71.0767 21.9176 69.2127 22.167 68.6155 23.5566L49.3413 68.4046C49.0707 69.0341 49.1413 69.7582 49.5282 70.3237L62.7642 89.6666C63.6489 90.9594 65.6092 90.7793 66.2435 89.3469L86.6619 43.2358Z" fill="#95B19B"/>
<path d="M84.491 42.632C84.794 41.948 84.6897 41.152 84.2209 40.569L69.7653 22.5914C68.8203 21.4162 66.9643 21.6697 66.369 23.0552L47.3441 67.3406C47.0721 67.9739 47.1452 68.7025 47.5377 69.2691L60.8565 88.4929C61.7457 89.7764 63.697 89.5914 64.3292 88.1637L84.491 42.632Z" fill="#CFDFC7"/>
<path d="M83.1736 42.5542L67.7028 23.9924L50.6459 62.5076L65.502 81.7655L83.1736 42.5542Z" fill="#E3F0DC"/>
<ellipse cx="55.0476" cy="73.5126" rx="1.65068" ry="2.2009" fill="#95B19B"/>
<path d="M91.8657 81.2091C88.5858 84.5917 83.2963 84.5621 80.0514 81.143C76.8065 77.724 78.3342 72.2101 81.6142 68.8276C84.8941 65.445 89.9058 65.4086 93.1508 68.8276C96.3957 72.2467 95.1456 77.8265 91.8657 81.2091Z" fill="#8D9DDC"/>
<path d="M90.5274 79.4453C87.4167 82.6534 82.4001 82.6253 79.3226 79.3826C76.2451 76.1399 77.694 70.9106 80.8047 67.7025C83.9155 64.4944 88.6687 64.4599 91.7462 67.7025C94.8237 70.9452 93.6382 76.2372 90.5274 79.4453Z" fill="#B3BFF0"/>
<path d="M95.0617 59.7504C92.8751 62.0054 89.3488 61.9857 87.1855 59.7063C85.0222 57.4269 86.0407 53.7511 88.2274 51.496C90.414 49.241 93.7551 49.2167 95.9184 51.4961C98.0817 53.7754 97.2483 57.4953 95.0617 59.7504Z" fill="#8D9DDC"/>
<path d="M94.1695 58.5745C92.0957 60.7133 88.7513 60.6945 86.6996 58.5328C84.6479 56.371 85.6139 52.8847 87.6877 50.746C89.7615 48.6073 92.9303 48.5842 94.982 50.746C97.0337 52.9078 96.2433 56.4358 94.1695 58.5745Z" fill="#B3BFF0"/>
</g>
<defs>
<filter id="filter0_d" x="0.503174" y="37.5337" width="129.622" height="82.211" filterUnits="userSpaceOnUse" color-interpolation-filters="sRGB">
<feFlood flood-opacity="0" result="BackgroundImageFix"/>
<feColorMatrix in="SourceAlpha" type="matrix" values="0 0 0 0 0 0 0 0 0 0 0 0 0 0 0 0 0 0 127 0"/>
<feOffset dy="2"/>
<feGaussianBlur stdDeviation="2.5"/>
<feColorMatrix type="matrix" values="0 0 0 0 0.00135416 0 0 0 0 0.1625 0 0 0 0 0.134936 0 0 0 0.15 0"/>
<feBlend mode="normal" in2="BackgroundImageFix" result="effect1_dropShadow"/>
<feBlend mode="normal" in="SourceGraphic" in2="effect1_dropShadow" result="shape"/>
</filter>
<filter id="filter1_d" x="0.503174" y="37.5338" width="129.622" height="82.2109" filterUnits="userSpaceOnUse" color-interpolation-filters="sRGB">
<feFlood flood-opacity="0" result="BackgroundImageFix"/>
<feColorMatrix in="SourceAlpha" type="matrix" values="0 0 0 0 0 0 0 0 0 0 0 0 0 0 0 0 0 0 127 0"/>
<feOffset dy="2"/>
<feGaussianBlur stdDeviation="2.5"/>
<feColorMatrix type="matrix" values="0 0 0 0 0.00135416 0 0 0 0 0.1625 0 0 0 0 0.134936 0 0 0 0.15 0"/>
<feBlend mode="normal" in2="BackgroundImageFix" result="effect1_dropShadow"/>
<feBlend mode="normal" in="SourceGraphic" in2="effect1_dropShadow" result="shape"/>
</filter>
<clipPath id="clip0">
<rect width="130" height="128" fill="white" transform="translate(0.453613)"/>
</clipPath>
</defs>
</svg>
