<svg width="130" height="128" viewBox="0 0 130 128" fill="none" xmlns="http://www.w3.org/2000/svg">
<path fill-rule="evenodd" clip-rule="evenodd" d="M52.1122 103.804C77.1635 111.463 103.68 97.3636 111.339 72.3123C118.998 47.261 104.899 20.7441 79.8477 13.0851C54.7964 5.42617 28.2795 19.5255 20.6205 44.5768C12.9616 69.6281 27.0609 96.145 52.1122 103.804Z" fill="#527C5A"/>
<g filter="url(#filter0_d)">
<path fill-rule="evenodd" clip-rule="evenodd" d="M6.87751 73.6012C4.39163 75.2087 4.45259 78.8658 6.99067 80.3896L56.3696 110.034C62.6596 113.811 70.5616 113.628 76.6705 109.566L121.994 79.4245C125.804 76.8907 125.489 71.1955 121.423 69.0968L69.3211 42.2046C64.5433 39.7385 58.8111 40.0183 54.2962 42.9379L6.87751 73.6012Z" fill="white"/>
</g>
<rect x="80.514" y="30.8793" width="17" height="27" rx="2" transform="rotate(16.528 80.514 30.8793)" fill="#8D9DDC"/>
<rect x="82.5972" y="29.3557" width="17" height="27" rx="2" transform="rotate(16.528 82.5972 29.3557)" fill="#B3BFF0"/>
<path fill-rule="evenodd" clip-rule="evenodd" d="M54.3054 55.9861C53.9694 55.4397 53.6551 54.9404 53.3624 54.4883C45.8414 56.9599 41.3113 59.9302 39.7724 63.3991C38.2334 66.868 37.6966 70.3954 38.162 73.9813C46.7444 77.4193 54.8809 78.6514 62.5715 77.6773C70.262 76.7033 75.8173 74.3359 79.2372 70.575C79.39 67.8365 78.965 64.9101 77.9623 61.7959C76.9702 58.7143 73.0727 56.62 66.2699 55.5133C66.1989 55.4217 66.1268 55.3326 66.0537 55.2459C65.6882 55.6114 65.3692 55.9769 65.0658 56.3245C63.9981 57.5477 63.1238 58.5493 61.0985 58.5493C58.9428 58.5493 56.6582 57.8316 54.3054 55.9861Z" fill="#527C5A"/>
<path fill-rule="evenodd" clip-rule="evenodd" d="M61.4175 25.5057C56.1724 25.1895 52.9272 25.7178 51.6819 27.0907C49.8139 29.15 45.5037 32.8095 46.2008 37.5184C46.8979 42.2274 49.7779 43.6373 51.6819 47.462C52.9512 50.0118 56.0127 51.8064 60.8665 52.8457L60.8795 52.1991C61.0576 52.2143 61.237 52.2221 61.4175 52.2221C66.7943 52.2221 69.8645 47.1778 69.8645 40.1193C69.8645 38.2422 70.2844 34.5498 69.8645 32.7538C68.7054 27.7967 65.3643 25.5057 61.4175 25.5057Z" fill="#FAFAFA"/>
<path fill-rule="evenodd" clip-rule="evenodd" d="M67.0824 32.2982C63.213 32.9293 56.2693 29.3734 56.5305 29.3734C56.5305 29.3734 55.7767 32.8331 53.8636 33.683C51.0463 34.9347 50.2052 39.9334 50.1908 45.0206C48.4045 42.843 46.5987 40.6174 46.1193 38.9135C45.4003 36.3575 45.3192 29.9188 47.2868 26.8345C49.2543 23.7502 51.9322 21.9679 56.5305 21.1093C59.3286 20.5868 64.4921 21.984 66.6946 24.3048C69.1883 26.9327 71.4125 26.0849 72.3944 25.5027C72.3944 25.5027 72.5999 28.4773 71.5499 30.1049C70.947 31.0395 70.9518 31.6671 67.0824 32.2982Z" fill="#CFDFC7"/>
<path fill-rule="evenodd" clip-rule="evenodd" d="M53.7533 50.11L53.2444 54.6904C54.2622 56.2172 54.7188 56.6742 55.2801 57.0296C57.0991 58.1814 60.1575 58.7618 61.3873 58.7618C62.6006 58.7618 63.2538 58.1216 64.3742 57.0296C64.6739 56.7375 65.5059 56.0467 65.9677 55.1993V50.6189C63.6564 51.7159 61.2028 52.2521 59.8605 52.1457C58.5181 52.0393 57.0066 51.8482 53.7533 50.11Z" fill="#F1F0F0"/>
<defs>
<filter id="filter0_d" x="0.0495605" y="37.5338" width="129.622" height="82.2109" filterUnits="userSpaceOnUse" color-interpolation-filters="sRGB">
<feFlood flood-opacity="0" result="BackgroundImageFix"/>
<feColorMatrix in="SourceAlpha" type="matrix" values="0 0 0 0 0 0 0 0 0 0 0 0 0 0 0 0 0 0 127 0"/>
<feOffset dy="2"/>
<feGaussianBlur stdDeviation="2.5"/>
<feColorMatrix type="matrix" values="0 0 0 0 0.00135416 0 0 0 0 0.1625 0 0 0 0 0.134936 0 0 0 0.15 0"/>
<feBlend mode="normal" in2="BackgroundImageFix" result="effect1_dropShadow"/>
<feBlend mode="normal" in="SourceGraphic" in2="effect1_dropShadow" result="shape"/>
</filter>
</defs>
</svg>
