<svg width="46" height="30" viewBox="0 0 46 30" fill="none" xmlns="http://www.w3.org/2000/svg">
<path fill-rule="evenodd" clip-rule="evenodd" d="M28.4655 1.21582C30.6466 2.21913 32.3468 3.47232 33.6323 5.16265C34.9177 6.85297 35.8224 8.42709 36.3689 10.7724C36.7405 10.7863 37.3005 10.8559 37.5338 10.8948C37.7671 10.9336 38.1306 11.0076 38.4004 11.0809C38.6702 11.1542 38.9283 11.2288 39.2389 11.346C39.4509 11.426 39.6057 11.472 40.0103 11.6654C40.4149 11.8589 40.4246 11.8662 40.7518 12.0503C41.7891 12.6339 42.122 12.9705 42.5532 13.3917C42.9844 13.8129 43.0386 13.8768 43.2899 14.17C43.5411 14.4633 43.5494 14.4827 43.67 14.6455C43.7842 14.7998 43.8867 14.9546 43.9909 15.1106C44.2899 15.5583 44.558 16.0443 44.77 16.5388C44.9117 16.8694 45.126 17.4532 45.281 18.0493C45.3257 18.2213 45.3619 18.3956 45.3943 18.564C45.4175 18.685 45.4415 18.8026 45.452 18.9155C45.4841 19.2612 45.5432 19.6074 45.5499 19.9498C45.5639 20.6631 45.5291 21.3726 45.401 22.0679C45.1362 23.5048 44.543 24.9139 43.5521 26.2081C42.8493 27.1259 42.0306 27.8122 41.1402 28.4038C40.4487 28.8633 39.7049 29.2089 38.8598 29.4906C38.1765 29.6726 37.4794 29.8564 36.7577 29.9012C36.1502 29.9679 35.5407 29.9961 34.8507 29.9961C33.2473 29.9961 31.4151 29.9764 29.7475 29.9961C29.369 30.0006 28.9953 29.9963 28.6324 29.9961C27.9887 29.9957 27.3762 29.9962 26.8116 29.9961C26.4884 29.9947 26.4178 30.0029 25.8227 29.9961C25.4988 29.9924 24.7476 30.0453 23.9702 29.8505C23.8741 29.8264 23.7715 29.7923 23.6543 29.7534C23.6409 29.7489 23.6776 29.7613 23.5954 29.7318C23.5133 29.7022 23.3902 29.6507 23.3364 29.6255C23.2663 29.5928 23.1592 29.5394 23.1592 29.5394C23.1592 29.5394 23.0783 29.4965 23.0449 29.4779C22.9954 29.4504 23.1551 29.5471 22.9274 29.4091C22.6997 29.271 22.523 29.1513 22.3724 29.0175C22.3342 28.9836 22.167 28.8334 22.1352 28.8001C22.0939 28.7567 22.0266 28.6899 21.9882 28.646C21.9089 28.5555 21.8314 28.4645 21.7639 28.3692C21.6964 28.2738 21.705 28.2892 21.677 28.2475C21.617 28.158 21.5741 28.0982 21.5012 27.9701C21.4282 27.8421 21.4215 27.8218 21.4011 27.7826C21.3807 27.7434 21.379 27.7436 21.3258 27.6263C21.2726 27.5091 21.2917 27.5449 21.2605 27.4676C21.2294 27.3903 21.197 27.3052 21.1566 27.17C21.1274 27.0721 21.1016 26.9666 21.0844 26.8867C21.056 26.7551 21.0408 26.6845 21.0237 26.5484C21.0067 26.4123 21.004 26.3759 20.9956 26.1995C20.9834 25.9447 20.9773 25.6077 20.9773 25.374C20.9773 24.5842 20.9814 23.8546 20.9773 23.6404C20.9511 21.3684 20.9773 19.1132 20.9773 16.8335C19.6731 16.8322 18.4297 16.8341 17.1254 16.8328C19.5169 14.4477 21.9089 12.0639 24.3016 9.68073C24.3023 10.3307 24.3021 10.9806 24.302 11.6305C24.3018 12.2804 24.3016 12.9303 24.3023 13.5803C25.3901 13.5816 26.4773 13.5803 27.5652 13.5809C27.5652 14.6649 27.5658 15.7488 27.5645 16.8328C26.4767 16.8335 25.3895 16.8328 24.3023 16.8335C24.3016 18.8286 24.2628 20.8088 24.2628 22.8039C24.2625 23.105 24.257 23.6658 24.2628 24.2744C24.2685 24.862 24.2827 25.4914 24.3841 25.9722C24.3956 26.0266 24.4114 26.0781 24.4283 26.1322C24.4452 26.1862 24.4956 26.3263 24.5664 26.4557C24.6204 26.5545 24.6886 26.6424 24.7131 26.6739C24.7522 26.7241 24.813 26.7986 24.8777 26.8624C24.9638 26.9473 25.0541 27.0168 25.0665 27.026C25.1308 27.0735 25.2011 27.1197 25.2943 27.17C25.3875 27.2203 25.4974 27.2679 25.6502 27.3139C26.009 27.4219 26.6216 27.391 26.8116 27.3904C28.7807 27.3904 32.0517 27.3748 34.0202 27.3748C34.8687 27.3702 36.0637 27.3515 36.5643 27.2928C37.0649 27.2341 37.408 27.1534 37.7299 27.0717C38.0519 26.9899 38.1727 26.937 38.463 26.8304C38.84 26.692 39.1977 26.5192 39.5432 26.3069C39.9304 26.069 40.3017 25.7957 40.6372 25.488C41.0663 25.0947 41.4479 24.6544 41.7377 24.2261C42.3053 23.3875 42.7117 22.3558 42.8539 21.2657C42.8916 20.9759 42.908 20.6826 42.9094 20.3907C42.9111 20.0058 42.8823 19.6215 42.8204 19.2482C42.6852 18.4325 42.409 17.6674 42.067 17.0511C41.3746 15.803 40.3762 14.8312 39.135 14.2053C38.8692 14.0713 38.5932 13.9458 38.3056 13.8448C38.1853 13.8025 37.785 13.6727 37.3606 13.5809C36.9519 13.4926 36.5194 13.4415 36.3689 13.4384C36.11 13.433 35.9628 13.4384 35.8402 13.4384C35.7177 13.4384 35.6365 13.4447 35.4129 13.4575C35.1893 13.4702 35.1796 13.4817 34.9535 13.5048C34.7274 13.5279 34.2172 13.6479 34.0202 13.7084C34.0131 13.085 33.9267 11.9628 33.7643 11.3773C33.6062 10.8069 33.4452 10.23 33.2181 9.68073C33.0987 9.39189 32.985 9.10595 32.8433 8.83041C32.5813 8.32062 32.2689 7.83869 31.967 7.38531C31.362 6.47649 30.4325 5.55814 29.4741 4.85096C28.7001 4.27982 27.8993 3.85961 27.2958 3.59074C25.9451 2.98896 24.2122 2.6416 22.5897 2.67874C21.6944 2.69923 20.8298 2.80713 20.0184 3.02105C19.207 3.23498 18.307 3.56429 17.4568 4.02168C17.1267 4.19926 16.7448 4.43269 16.3955 4.68067C15.7321 5.15162 15.0949 5.69719 14.4929 6.34407C14.2995 6.55192 14.1285 6.76889 13.9613 6.98353C13.6128 7.43075 13.3092 7.88428 13.0528 8.33923C12.8475 8.70332 12.6564 9.06263 12.5069 9.41794C12.3412 9.81153 12.1332 10.344 11.9815 10.9336C11.7429 11.8606 11.5957 12.9173 11.6058 13.7084C11.3712 13.643 11.0504 13.5719 10.8456 13.5364C10.6407 13.5009 10.426 13.4751 10.205 13.4575C10.0917 13.4484 9.8082 13.4312 9.48443 13.4384C9.17719 13.4452 8.83375 13.475 8.56175 13.5209C8.39175 13.547 8.22043 13.5814 8.04799 13.6214C7.85794 13.6656 7.66711 13.7204 7.47754 13.7819C7.1057 13.9025 6.73874 14.061 6.38518 14.2448C6.05666 14.4155 5.71335 14.6374 5.39226 14.8848C5.22829 15.0111 5.14792 15.0773 5.05414 15.1599C4.96428 15.239 4.86188 15.333 4.67233 15.5188C4.55877 15.6469 4.31236 15.8973 4.06552 16.2288C3.81868 16.5603 3.50838 17.0511 3.319 17.4823C3.12962 17.9135 3.0112 18.2412 2.91266 18.6125C2.73281 19.29 2.67433 19.9201 2.69663 20.3484C2.71308 20.6643 2.71529 21.0913 2.7891 21.5501C2.80181 21.6291 2.81832 21.7093 2.83516 21.7911C2.87172 21.9686 2.91647 22.1526 2.97413 22.3401C3.03229 22.5294 3.09891 22.7222 3.17333 22.915C3.18858 22.9545 3.19604 22.9736 3.22189 23.0334C3.24774 23.0932 3.27388 23.1553 3.30168 23.2163C3.30854 23.2314 3.31588 23.2464 3.32264 23.2615C3.47457 23.602 3.67625 23.9456 3.89971 24.2744C3.95787 24.36 4.00358 24.4209 4.03856 24.469C4.05266 24.4883 4.06509 24.5053 4.07673 24.5208C4.12781 24.589 4.15899 24.6273 4.20672 24.6873C4.22481 24.71 4.24649 24.737 4.26963 24.7649C4.29277 24.7929 4.32388 24.8303 4.33116 24.8387C4.34988 24.8602 4.37774 24.8923 4.39593 24.9139C4.41412 24.9356 4.44131 24.9641 4.46847 24.9953C4.49563 25.0265 4.55405 25.0884 4.59754 25.1347C5.24947 25.8293 6.16183 26.4664 7.17339 26.8504C8.07285 27.1918 9.05283 27.317 9.96576 27.3527C12.0842 27.4355 14.8432 27.3742 17.6497 27.3748C17.6504 28.2422 17.6504 29.1097 17.6497 29.9771C14.5376 29.9765 11.9991 29.9044 8.88768 29.9012C8.72828 29.8937 8.56747 29.877 8.40519 29.8564C8.14575 29.8234 7.88293 29.7777 7.61904 29.724C5.98997 29.3921 4.32261 28.5398 3.05371 27.3527C2.67016 26.9938 2.31133 26.6011 1.98816 26.179C1.40824 25.4216 0.937513 24.5744 0.604871 23.6929C0.391017 23.1306 0.23775 22.5451 0.134501 21.9503C0.0451421 21.4355 0.00431837 20.9124 0.000308786 20.3907C-0.00438754 19.7796 0.0441937 19.1701 0.166091 18.5731C0.228612 18.2616 0.299119 17.943 0.392608 17.6317C0.522565 17.199 0.689362 16.776 0.873448 16.3669C1.39919 15.1986 2.17002 14.1802 3.07527 13.3341C3.5536 12.887 3.88374 12.6446 4.27162 12.3832C5.02109 11.8782 5.70796 11.5698 6.50276 11.2859C7.25227 11.0181 8.10119 10.8226 9.25697 10.7698C9.30978 10.4473 9.41302 10.1413 9.50922 9.8232C9.69833 9.19791 9.94017 8.55423 10.2779 7.84489C10.7873 6.77472 11.4213 5.80394 12.1798 4.92103C13.0508 3.90724 14.2763 2.8554 15.2646 2.22502C15.8438 1.85559 16.4244 1.53912 16.9941 1.2704C17.3966 1.08057 17.8116 0.915421 18.2403 0.772541C19.3598 0.370246 20.8525 0.0556286 22.2369 0.00844366C22.936 -0.0153863 23.6182 0.0120432 24.3023 0.0803718C25.6594 0.215927 27.0153 0.548758 28.4655 1.21582Z" fill="#41A541"/>
</svg>
